<svg class="rich-terminal" viewBox="0 0 1238 733.1999999999999" xmlns="http://www.w3.org/2000/svg">
    <!-- Generated with Rich https://www.textualize.io -->
    <style>

    @font-face {
        font-family: "Fira Code";
        src: local("FiraCode-Regular"),
                url("https://cdnjs.cloudflare.com/ajax/libs/firacode/6.2.0/woff2/FiraCode-Regular.woff2") format("woff2"),
                url("https://cdnjs.cloudflare.com/ajax/libs/firacode/6.2.0/woff/FiraCode-Regular.woff") format("woff");
        font-style: normal;
        font-weight: 400;
    }
    @font-face {
        font-family: "Fira Code";
        src: local("FiraCode-Bold"),
                url("https://cdnjs.cloudflare.com/ajax/libs/firacode/6.2.0/woff2/FiraCode-Bold.woff2") format("woff2"),
                url("https://cdnjs.cloudflare.com/ajax/libs/firacode/6.2.0/woff/FiraCode-Bold.woff") format("woff");
        font-style: bold;
        font-weight: 700;
    }

    .terminal-1432917895-matrix {
        font-family: Fira Code, monospace;
        font-size: 20px;
        line-height: 24.4px;
        font-variant-east-asian: full-width;
    }

    .terminal-1432917895-title {
        font-size: 18px;
        font-weight: bold;
        font-family: arial;
    }

    .terminal-1432917895-r1 { fill: #c5c8c6 }
.terminal-1432917895-r2 { fill: #e0e0e0 }
.terminal-1432917895-r3 { fill: #a0a3a6 }
.terminal-1432917895-r4 { fill: #797979 }
.terminal-1432917895-r5 { fill: #262626 }
.terminal-1432917895-r6 { fill: #0178d4 }
.terminal-1432917895-r7 { fill: #121212 }
.terminal-1432917895-r8 { fill: #191919 }
.terminal-1432917895-r9 { fill: #7f7f7f }
.terminal-1432917895-r10 { fill: #737373 }
.terminal-1432917895-r11 { fill: #0065be }
.terminal-1432917895-r12 { fill: #fea62b;font-weight: bold }
.terminal-1432917895-r13 { fill: #211505;font-weight: bold }
.terminal-1432917895-r14 { fill: #e1e1e1;font-weight: bold }
.terminal-1432917895-r15 { fill: #ffa62b;font-weight: bold }
.terminal-1432917895-r16 { fill: #495259 }
    </style>

    <defs>
    <clipPath id="terminal-1432917895-clip-terminal">
      <rect x="0" y="0" width="1219.0" height="682.1999999999999" />
    </clipPath>
    <clipPath id="terminal-1432917895-line-0">
    <rect x="0" y="1.5" width="1220" height="24.65"/>
            </clipPath>
<clipPath id="terminal-1432917895-line-1">
    <rect x="0" y="25.9" width="1220" height="24.65"/>
            </clipPath>
<clipPath id="terminal-1432917895-line-2">
    <rect x="0" y="50.3" width="1220" height="24.65"/>
            </clipPath>
<clipPath id="terminal-1432917895-line-3">
    <rect x="0" y="74.7" width="1220" height="24.65"/>
            </clipPath>
<clipPath id="terminal-1432917895-line-4">
    <rect x="0" y="99.1" width="1220" height="24.65"/>
            </clipPath>
<clipPath id="terminal-1432917895-line-5">
    <rect x="0" y="123.5" width="1220" height="24.65"/>
            </clipPath>
<clipPath id="terminal-1432917895-line-6">
    <rect x="0" y="147.9" width="1220" height="24.65"/>
            </clipPath>
<clipPath id="terminal-1432917895-line-7">
    <rect x="0" y="172.3" width="1220" height="24.65"/>
            </clipPath>
<clipPath id="terminal-1432917895-line-8">
    <rect x="0" y="196.7" width="1220" height="24.65"/>
            </clipPath>
<clipPath id="terminal-1432917895-line-9">
    <rect x="0" y="221.1" width="1220" height="24.65"/>
            </clipPath>
<clipPath id="terminal-1432917895-line-10">
    <rect x="0" y="245.5" width="1220" height="24.65"/>
            </clipPath>
<clipPath id="terminal-1432917895-line-11">
    <rect x="0" y="269.9" width="1220" height="24.65"/>
            </clipPath>
<clipPath id="terminal-1432917895-line-12">
    <rect x="0" y="294.3" width="1220" height="24.65"/>
            </clipPath>
<clipPath id="terminal-1432917895-line-13">
    <rect x="0" y="318.7" width="1220" height="24.65"/>
            </clipPath>
<clipPath id="terminal-1432917895-line-14">
    <rect x="0" y="343.1" width="1220" height="24.65"/>
            </clipPath>
<clipPath id="terminal-1432917895-line-15">
    <rect x="0" y="367.5" width="1220" height="24.65"/>
            </clipPath>
<clipPath id="terminal-1432917895-line-16">
    <rect x="0" y="391.9" width="1220" height="24.65"/>
            </clipPath>
<clipPath id="terminal-1432917895-line-17">
    <rect x="0" y="416.3" width="1220" height="24.65"/>
            </clipPath>
<clipPath id="terminal-1432917895-line-18">
    <rect x="0" y="440.7" width="1220" height="24.65"/>
            </clipPath>
<clipPath id="terminal-1432917895-line-19">
    <rect x="0" y="465.1" width="1220" height="24.65"/>
            </clipPath>
<clipPath id="terminal-1432917895-line-20">
    <rect x="0" y="489.5" width="1220" height="24.65"/>
            </clipPath>
<clipPath id="terminal-1432917895-line-21">
    <rect x="0" y="513.9" width="1220" height="24.65"/>
            </clipPath>
<clipPath id="terminal-1432917895-line-22">
    <rect x="0" y="538.3" width="1220" height="24.65"/>
            </clipPath>
<clipPath id="terminal-1432917895-line-23">
    <rect x="0" y="562.7" width="1220" height="24.65"/>
            </clipPath>
<clipPath id="terminal-1432917895-line-24">
    <rect x="0" y="587.1" width="1220" height="24.65"/>
            </clipPath>
<clipPath id="terminal-1432917895-line-25">
    <rect x="0" y="611.5" width="1220" height="24.65"/>
            </clipPath>
<clipPath id="terminal-1432917895-line-26">
    <rect x="0" y="635.9" width="1220" height="24.65"/>
            </clipPath>
    </defs>

    <rect fill="#292929" stroke="rgba(255,255,255,0.35)" stroke-width="1" x="1" y="1" width="1236" height="731.2" rx="8"/><text class="terminal-1432917895-title" fill="#c5c8c6" text-anchor="middle" x="618" y="27">Trove</text>
            <g transform="translate(26,22)">
            <circle cx="0" cy="0" r="7" fill="#ff5f57"/>
            <circle cx="22" cy="0" r="7" fill="#febc2e"/>
            <circle cx="44" cy="0" r="7" fill="#28c840"/>
            </g>
        
    <g transform="translate(9, 41)" clip-path="url(#terminal-1432917895-clip-terminal)">
    <rect fill="#242f38" x="0" y="1.5" width="12.2" height="24.65" shape-rendering="crispEdges"/><rect fill="#242f38" x="12.2" y="1.5" width="12.2" height="24.65" shape-rendering="crispEdges"/><rect fill="#242f38" x="24.4" y="1.5" width="61" height="24.65" shape-rendering="crispEdges"/><rect fill="#242f38" x="85.4" y="1.5" width="12.2" height="24.65" shape-rendering="crispEdges"/><rect fill="#242f38" x="97.6" y="1.5" width="329.4" height="24.65" shape-rendering="crispEdges"/><rect fill="#242f38" x="427" y="1.5" width="61" height="24.65" shape-rendering="crispEdges"/><rect fill="#242f38" x="488" y="1.5" width="36.6" height="24.65" shape-rendering="crispEdges"/><rect fill="#242f38" x="524.6" y="1.5" width="231.8" height="24.65" shape-rendering="crispEdges"/><rect fill="#242f38" x="756.4" y="1.5" width="341.6" height="24.65" shape-rendering="crispEdges"/><rect fill="#242f38" x="1098" y="1.5" width="12.2" height="24.65" shape-rendering="crispEdges"/><rect fill="#242f38" x="1110.2" y="1.5" width="0" height="24.65" shape-rendering="crispEdges"/><rect fill="#242f38" x="1110.2" y="1.5" width="97.6" height="24.65" shape-rendering="crispEdges"/><rect fill="#242f38" x="1207.8" y="1.5" width="12.2" height="24.65" shape-rendering="crispEdges"/><rect fill="#121212" x="0" y="25.9" width="12.2" height="24.65" shape-rendering="crispEdges"/><rect fill="#121212" x="12.2" y="25.9" width="73.2" height="24.65" shape-rendering="crispEdges"/><rect fill="#121212" x="85.4" y="25.9" width="12.2" height="24.65" shape-rendering="crispEdges"/><rect fill="#121212" x="97.6" y="25.9" width="12.2" height="24.65" shape-rendering="crispEdges"/><rect fill="#121212" x="109.8" y="25.9" width="109.8" height="24.65" shape-rendering="crispEdges"/><rect fill="#121212" x="219.6" y="25.9" width="12.2" height="24.65" shape-rendering="crispEdges"/><rect fill="#121212" x="231.8" y="25.9" width="12.2" height="24.65" shape-rendering="crispEdges"/><rect fill="#121212" x="244" y="25.9" width="97.6" height="24.65" shape-rendering="crispEdges"/><rect fill="#121212" x="341.6" y="25.9" width="12.2" height="24.65" shape-rendering="crispEdges"/><rect fill="#121212" x="353.8" y="25.9" width="866.2" height="24.65" shape-rendering="crispEdges"/><rect fill="#121212" x="0" y="50.3" width="12.2" height="24.65" shape-rendering="crispEdges"/><rect fill="#121212" x="12.2" y="50.3" width="73.2" height="24.65" shape-rendering="crispEdges"/><rect fill="#121212" x="85.4" y="50.3" width="12.2" height="24.65" shape-rendering="crispEdges"/><rect fill="#121212" x="97.6" y="50.3" width="1122.4" height="24.65" shape-rendering="crispEdges"/><rect fill="#121212" x="0" y="74.7" width="1220" height="24.65" shape-rendering="crispEdges"/><rect fill="#121212" x="0" y="99.1" width="12.2" height="24.65" shape-rendering="crispEdges"/><rect fill="#191919" x="12.2" y="99.1" width="12.2" height="24.65" shape-rendering="crispEdges"/><rect fill="#1e1e1e" x="24.4" y="99.1" width="170.8" height="24.65" shape-rendering="crispEdges"/><rect fill="#121212" x="195.2" y="99.1" width="12.2" height="24.65" shape-rendering="crispEdges"/><rect fill="#121212" x="207.4" y="99.1" width="12.2" height="24.65" shape-rendering="crispEdges"/><rect fill="#191919" x="219.6" y="99.1" width="12.2" height="24.65" shape-rendering="crispEdges"/><rect fill="#1e1e1e" x="231.8" y="99.1" width="170.8" height="24.65" shape-rendering="crispEdges"/><rect fill="#121212" x="402.6" y="99.1" width="12.2" height="24.65" shape-rendering="crispEdges"/><rect fill="#121212" x="414.8" y="99.1" width="12.2" height="24.65" shape-rendering="crispEdges"/><rect fill="#191919" x="427" y="99.1" width="12.2" height="24.65" shape-rendering="crispEdges"/><rect fill="#1e1e1e" x="439.2" y="99.1" width="353.8" height="24.65" shape-rendering="crispEdges"/><rect fill="#121212" x="793" y="99.1" width="12.2" height="24.65" shape-rendering="crispEdges"/><rect fill="#121212" x="805.2" y="99.1" width="12.2" height="24.65" shape-rendering="crispEdges"/><rect fill="#191919" x="817.4" y="99.1" width="12.2" height="24.65" shape-rendering="crispEdges"/><rect fill="#1e1e1e" x="829.6" y="99.1" width="353.8" height="24.65" shape-rendering="crispEdges"/><rect fill="#121212" x="1183.4" y="99.1" width="12.2" height="24.65" shape-rendering="crispEdges"/><rect fill="#121212" x="1195.6" y="99.1" width="12.2" height="24.65" shape-rendering="crispEdges"/><rect fill="#121212" x="1207.8" y="99.1" width="12.2" height="24.65" shape-rendering="crispEdges"/><rect fill="#121212" x="0" y="123.5" width="12.2" height="24.65" shape-rendering="crispEdges"/><rect fill="#191919" x="12.2" y="123.5" width="12.2" height="24.65" shape-rendering="crispEdges"/><rect fill="#1e1e1e" x="24.4" y="123.5" width="24.4" height="24.65" shape-rendering="crispEdges"/><rect fill="#1e1e1e" x="48.8" y="123.5" width="36.6" height="24.65" shape-rendering="crispEdges"/><rect fill="#1e1e1e" x="85.4" y="123.5" width="61" height="24.65" shape-rendering="crispEdges"/><rect fill="#1e1e1e" x="146.4" y="123.5" width="12.2" height="24.65" shape-rendering="crispEdges"/><rect fill="#1e1e1e" x="158.6" y="123.5" width="12.2" height="24.65" shape-rendering="crispEdges"/><rect fill="#1e1e1e" x="170.8" y="123.5" width="24.4" height="24.65" shape-rendering="crispEdges"/><rect fill="#121212" x="195.2" y="123.5" width="12.2" height="24.65" shape-rendering="crispEdges"/><rect fill="#121212" x="207.4" y="123.5" width="12.2" height="24.65" shape-rendering="crispEdges"/><rect fill="#191919" x="219.6" y="123.5" width="12.2" height="24.65" shape-rendering="crispEdges"/><rect fill="#1e1e1e" x="231.8" y="123.5" width="24.4" height="24.65" shape-rendering="crispEdges"/><rect fill="#1e1e1e" x="256.2" y="123.5" width="61" height="24.65" shape-rendering="crispEdges"/><rect fill="#1e1e1e" x="317.2" y="123.5" width="36.6" height="24.65" shape-rendering="crispEdges"/><rect fill="#1e1e1e" x="353.8" y="123.5" width="12.2" height="24.65" shape-rendering="crispEdges"/><rect fill="#1e1e1e" x="366" y="123.5" width="12.2" height="24.65" shape-rendering="crispEdges"/><rect fill="#1e1e1e" x="378.2" y="123.5" width="24.4" height="24.65" shape-rendering="crispEdges"/><rect fill="#121212" x="402.6" y="123.5" width="12.2" height="24.65" shape-rendering="crispEdges"/><rect fill="#121212" x="414.8" y="123.5" width="12.2" height="24.65" shape-rendering="crispEdges"/><rect fill="#191919" x="427" y="123.5" width="12.2" height="24.65" shape-rendering="crispEdges"/><rect fill="#1e1e1e" x="439.2" y="123.5" width="24.4" height="24.65" shape-rendering="crispEdges"/><rect fill="#1e1e1e" x="463.6" y="123.5" width="73.2" height="24.65" shape-rendering="crispEdges"/><rect fill="#1e1e1e" x="536.8" y="123.5" width="231.8" height="24.65" shape-rendering="crispEdges"/><rect fill="#1e1e1e" x="768.6" y="123.5" width="24.4" height="24.65" shape-rendering="crispEdges"/><rect fill="#121212" x="793" y="123.5" width="12.2" height="24.65" shape-rendering="crispEdges"/><rect fill="#121212" x="805.2" y="123.5" width="12.2" height="24.65" shape-rendering="crispEdges"/><rect fill="#191919" x="817.4" y="123.5" width="12.2" height="24.65" shape-rendering="crispEdges"/><rect fill="#1e1e1e" x="829.6" y="123.5" width="24.4" height="24.65" shape-rendering="crispEdges"/><rect fill="#1e1e1e" x="854" y="123.5" width="231.8" height="24.65" shape-rendering="crispEdges"/><rect fill="#1e1e1e" x="1085.8" y="123.5" width="73.2" height="24.65" shape-rendering="crispEdges"/><rect fill="#1e1e1e" x="1159" y="123.5" width="24.4" height="24.65" shape-rendering="crispEdges"/><rect fill="#121212" x="1183.4" y="123.5" width="12.2" height="24.65" shape-rendering="crispEdges"/><rect fill="#121212" x="1195.6" y="123.5" width="12.2" height="24.65" shape-rendering="crispEdges"/><rect fill="#121212" x="1207.8" y="123.5" width="12.2" height="24.65" shape-rendering="crispEdges"/><rect fill="#121212" x="0" y="147.9" width="1220" height="24.65" shape-rendering="crispEdges"/><rect fill="#121212" x="0" y="172.3" width="12.2" height="24.65" shape-rendering="crispEdges"/><rect fill="#272727" x="12.2" y="172.3" width="12.2" height="24.65" shape-rendering="crispEdges"/><rect fill="#272727" x="24.4" y="172.3" width="1171.2" height="24.65" shape-rendering="crispEdges"/><rect fill="#272727" x="1195.6" y="172.3" width="12.2" height="24.65" shape-rendering="crispEdges"/><rect fill="#121212" x="1207.8" y="172.3" width="12.2" height="24.65" shape-rendering="crispEdges"/><rect fill="#121212" x="0" y="196.7" width="12.2" height="24.65" shape-rendering="crispEdges"/><rect fill="#272727" x="12.2" y="196.7" width="12.2" height="24.65" shape-rendering="crispEdges"/><rect fill="#272727" x="24.4" y="196.7" width="24.4" height="24.65" shape-rendering="crispEdges"/><rect fill="#272727" x="48.8" y="196.7" width="134.2" height="24.65" shape-rendering="crispEdges"/><rect fill="#272727" x="183" y="196.7" width="97.6" height="24.65" shape-rendering="crispEdges"/><rect fill="#272727" x="280.6" y="196.7" width="268.4" height="24.65" shape-rendering="crispEdges"/><rect fill="#272727" x="549" y="196.7" width="109.8" height="24.65" shape-rendering="crispEdges"/><rect fill="#272727" x="658.8" y="196.7" width="536.8" height="24.65" shape-rendering="crispEdges"/><rect fill="#272727" x="1195.6" y="196.7" width="12.2" height="24.65" shape-rendering="crispEdges"/><rect fill="#121212" x="1207.8" y="196.7" width="12.2" height="24.65" shape-rendering="crispEdges"/><rect fill="#121212" x="0" y="221.1" width="12.2" height="24.65" shape-rendering="crispEdges"/><rect fill="#272727" x="12.2" y="221.1" width="12.2" height="24.65" shape-rendering="crispEdges"/><rect fill="#fea62b" x="24.4" y="221.1" width="24.4" height="24.65" shape-rendering="crispEdges"/><rect fill="#fea62b" x="48.8" y="221.1" width="134.2" height="24.65" shape-rendering="crispEdges"/><rect fill="#fea62b" x="183" y="221.1" width="97.6" height="24.65" shape-rendering="crispEdges"/><rect fill="#fea62b" x="280.6" y="221.1" width="268.4" height="24.65" shape-rendering="crispEdges"/><rect fill="#fea62b" x="549" y="221.1" width="109.8" height="24.65" shape-rendering="crispEdges"/><rect fill="#fea62b" x="658.8" y="221.1" width="536.8" height="24.65" shape-rendering="crispEdges"/><rect fill="#272727" x="1195.6" y="221.1" width="12.2" height="24.65" shape-rendering="crispEdges"/><rect fill="#121212" x="1207.8" y="221.1" width="12.2" height="24.65" shape-rendering="crispEdges"/><rect fill="#121212" x="0" y="245.5" width="12.2" height="24.65" shape-rendering="crispEdges"/><rect fill="#272727" x="12.2" y="245.5" width="12.2" height="24.65" shape-rendering="crispEdges"/><rect fill="#272727" x="24.4" y="245.5" width="24.4" height="24.65" shape-rendering="crispEdges"/><rect fill="#272727" x="48.8" y="245.5" width="134.2" height="24.65" shape-rendering="crispEdges"/><rect fill="#272727" x="183" y="245.5" width="97.6" height="24.65" shape-rendering="crispEdges"/><rect fill="#272727" x="280.6" y="245.5" width="268.4" height="24.65" shape-rendering="crispEdges"/><rect fill="#272727" x="549" y="245.5" width="109.8" height="24.65" shape-rendering="crispEdges"/><rect fill="#272727" x="658.8" y="245.5" width="536.8" height="24.65" shape-rendering="crispEdges"/><rect fill="#272727" x="1195.6" y="245.5" width="12.2" height="24.65" shape-rendering="crispEdges"/><rect fill="#121212" x="1207.8" y="245.5" width="12.2" height="24.65" shape-rendering="crispEdges"/><rect fill="#121212" x="0" y="269.9" width="12.2" height="24.65" shape-rendering="crispEdges"/><rect fill="#272727" x="12.2" y="269.9" width="12.2" height="24.65" shape-rendering="crispEdges"/><rect fill="#272727" x="24.4" y="269.9" width="24.4" height="24.65" shape-rendering="crispEdges"/><rect fill="#272727" x="48.8" y="269.9" width="134.2" height="24.65" shape-rendering="crispEdges"/><rect fill="#272727" x="183" y="269.9" width="97.6" height="24.65" shape-rendering="crispEdges"/><rect fill="#272727" x="280.6" y="269.9" width="268.4" height="24.65" shape-rendering="crispEdges"/><rect fill="#272727" x="549" y="269.9" width="109.8" height="24.65" shape-rendering="crispEdges"/><rect fill="#272727" x="658.8" y="269.9" width="536.8" height="24.65" shape-rendering="crispEdges"/><rect fill="#272727" x="1195.6" y="269.9" width="12.2" height="24.65" shape-rendering="crispEdges"/><rect fill="#121212" x="1207.8" y="269.9" width="12.2" height="24.65" shape-rendering="crispEdges"/><rect fill="#121212" x="0" y="294.3" width="12.2" height="24.65" shape-rendering="crispEdges"/><rect fill="#272727" x="12.2" y="294.3" width="12.2" height="24.65" shape-rendering="crispEdges"/><rect fill="#272727" x="24.4" y="294.3" width="24.4" height="24.65" shape-rendering="crispEdges"/><rect fill="#272727" x="48.8" y="294.3" width="134.2" height="24.65" shape-rendering="crispEdges"/><rect fill="#272727" x="183" y="294.3" width="97.6" height="24.65" shape-rendering="crispEdges"/><rect fill="#272727" x="280.6" y="294.3" width="268.4" height="24.65" shape-rendering="crispEdges"/><rect fill="#272727" x="549" y="294.3" width="109.8" height="24.65" shape-rendering="crispEdges"/><rect fill="#272727" x="658.8" y="294.3" width="536.8" height="24.65" shape-rendering="crispEdges"/><rect fill="#272727" x="1195.6" y="294.3" width="12.2" height="24.65" shape-rendering="crispEdges"/><rect fill="#121212" x="1207.8" y="294.3" width="12.2" height="24.65" shape-rendering="crispEdges"/><rect fill="#121212" x="0" y="318.7" width="12.2" height="24.65" shape-rendering="crispEdges"/><rect fill="#272727" x="12.2" y="318.7" width="12.2" height="24.65" shape-rendering="crispEdges"/><rect fill="#272727" x="24.4" y="318.7" width="24.4" height="24.65" shape-rendering="crispEdges"/><rect fill="#272727" x="48.8" y="318.7" width="134.2" height="24.65" shape-rendering="crispEdges"/><rect fill="#272727" x="183" y="318.7" width="97.6" height="24.65" shape-rendering="crispEdges"/><rect fill="#272727" x="280.6" y="318.7" width="268.4" height="24.65" shape-rendering="crispEdges"/><rect fill="#272727" x="549" y="318.7" width="109.8" height="24.65" shape-rendering="crispEdges"/><rect fill="#272727" x="658.8" y="318.7" width="536.8" height="24.65" shape-rendering="crispEdges"/><rect fill="#272727" x="1195.6" y="318.7" width="12.2" height="24.65" shape-rendering="crispEdges"/><rect fill="#121212" x="1207.8" y="318.7" width="12.2" height="24.65" shape-rendering="crispEdges"/><rect fill="#121212" x="0" y="343.1" width="12.2" height="24.65" shape-rendering="crispEdges"/><rect fill="#272727" x="12.2" y="343.1" width="12.2" height="24.65" shape-rendering="crispEdges"/><rect fill="#272727" x="24.4" y="343.1" width="1171.2" height="24.65" shape-rendering="crispEdges"/><rect fill="#272727" x="1195.6" y="343.1" width="12.2" height="24.65" shape-rendering="crispEdges"/><rect fill="#121212" x="1207.8" y="343.1" width="12.2" height="24.65" shape-rendering="crispEdges"/><rect fill="#121212" x="0" y="367.5" width="12.2" height="24.65" shape-rendering="crispEdges"/><rect fill="#272727" x="12.2" y="367.5" width="12.2" height="24.65" shape-rendering="crispEdges"/><rect fill="#272727" x="24.4" y="367.5" width="1171.2" height="24.65" shape-rendering="crispEdges"/><rect fill="#272727" x="1195.6" y="367.5" width="12.2" height="24.65" shape-rendering="crispEdges"/><rect fill="#121212" x="1207.8" y="367.5" width="12.2" height="24.65" shape-rendering="crispEdges"/><rect fill="#121212" x="0" y="391.9" width="12.2" height="24.65" shape-rendering="crispEdges"/><rect fill="#272727" x="12.2" y="391.9" width="12.2" height="24.65" shape-rendering="crispEdges"/><rect fill="#272727" x="24.4" y="391.9" width="1171.2" height="24.65" shape-rendering="crispEdges"/><rect fill="#272727" x="1195.6" y="391.9" width="12.2" height="24.65" shape-rendering="crispEdges"/><rect fill="#121212" x="1207.8" y="391.9" width="12.2" height="24.65" shape-rendering="crispEdges"/><rect fill="#121212" x="0" y="416.3" width="12.2" height="24.65" shape-rendering="crispEdges"/><rect fill="#272727" x="12.2" y="416.3" width="12.2" height="24.65" shape-rendering="crispEdges"/><rect fill="#272727" x="24.4" y="416.3" width="1171.2" height="24.65" shape-rendering="crispEdges"/><rect fill="#272727" x="1195.6" y="416.3" width="12.2" height="24.65" shape-rendering="crispEdges"/><rect fill="#121212" x="1207.8" y="416.3" width="12.2" height="24.65" shape-rendering="crispEdges"/><rect fill="#121212" x="0" y="440.7" width="12.2" height="24.65" shape-rendering="crispEdges"/><rect fill="#272727" x="12.2" y="440.7" width="12.2" height="24.65" shape-rendering="crispEdges"/><rect fill="#272727" x="24.4" y="440.7" width="1171.2" height="24.65" shape-rendering="crispEdges"/><rect fill="#272727" x="1195.6" y="440.7" width="12.2" height="24.65" shape-rendering="crispEdges"/><rect fill="#121212" x="1207.8" y="440.7" width="12.2" height="24.65" shape-rendering="crispEdges"/><rect fill="#121212" x="0" y="465.1" width="12.2" height="24.65" shape-rendering="crispEdges"/><rect fill="#272727" x="12.2" y="465.1" width="12.2" height="24.65" shape-rendering="crispEdges"/><rect fill="#272727" x="24.4" y="465.1" width="1171.2" height="24.65" shape-rendering="crispEdges"/><rect fill="#272727" x="1195.6" y="465.1" width="12.2" height="24.65" shape-rendering="crispEdges"/><rect fill="#121212" x="1207.8" y="465.1" width="12.2" height="24.65" shape-rendering="crispEdges"/><rect fill="#121212" x="0" y="489.5" width="12.2" height="24.65" shape-rendering="crispEdges"/><rect fill="#272727" x="12.2" y="489.5" width="12.2" height="24.65" shape-rendering="crispEdges"/><rect fill="#272727" x="24.4" y="489.5" width="1171.2" height="24.65" shape-rendering="crispEdges"/><rect fill="#272727" x="1195.6" y="489.5" width="12.2" height="24.65" shape-rendering="crispEdges"/><rect fill="#121212" x="1207.8" y="489.5" width="12.2" height="24.65" shape-rendering="crispEdges"/><rect fill="#121212" x="0" y="513.9" width="12.2" height="24.65" shape-rendering="crispEdges"/><rect fill="#272727" x="12.2" y="513.9" width="12.2" height="24.65" shape-rendering="crispEdges"/><rect fill="#272727" x="24.4" y="513.9" width="1171.2" height="24.65" shape-rendering="crispEdges"/><rect fill="#272727" x="1195.6" y="513.9" width="12.2" height="24.65" shape-rendering="crispEdges"/><rect fill="#121212" x="1207.8" y="513.9" width="12.2" height="24.65" shape-rendering="crispEdges"/><rect fill="#121212" x="0" y="538.3" width="12.2" height="24.65" shape-rendering="crispEdges"/><rect fill="#272727" x="12.2" y="538.3" width="12.2" height="24.65" shape-rendering="crispEdges"/><rect fill="#272727" x="24.4" y="538.3" width="1171.2" height="24.65" shape-rendering="crispEdges"/><rect fill="#272727" x="1195.6" y="538.3" width="12.2" height="24.65" shape-rendering="crispEdges"/><rect fill="#121212" x="1207.8" y="538.3" width="12.2" height="24.65" shape-rendering="crispEdges"/><rect fill="#121212" x="0" y="562.7" width="12.2" height="24.65" shape-rendering="crispEdges"/><rect fill="#272727" x="12.2" y="562.7" width="12.2" height="24.65" shape-rendering="crispEdges"/><rect fill="#272727" x="24.4" y="562.7" width="1171.2" height="24.65" shape-rendering="crispEdges"/><rect fill="#272727" x="1195.6" y="562.7" width="12.2" height="24.65" shape-rendering="crispEdges"/><rect fill="#121212" x="1207.8" y="562.7" width="12.2" height="24.65" shape-rendering="crispEdges"/><rect fill="#121212" x="0" y="587.1" width="12.2" height="24.65" shape-rendering="crispEdges"/><rect fill="#272727" x="12.2" y="587.1" width="12.2" height="24.65" shape-rendering="crispEdges"/><rect fill="#272727" x="24.4" y="587.1" width="1171.2" height="24.65" shape-rendering="crispEdges"/><rect fill="#272727" x="1195.6" y="587.1" width="12.2" height="24.65" shape-rendering="crispEdges"/><rect fill="#121212" x="1207.8" y="587.1" width="12.2" height="24.65" shape-rendering="crispEdges"/><rect fill="#121212" x="0" y="611.5" width="1220" height="24.65" shape-rendering="crispEdges"/><rect fill="#1b1b1b" x="0" y="635.9" width="341.6" height="24.65" shape-rendering="crispEdges"/><rect fill="#1b1b1b" x="341.6" y="635.9" width="878.4" height="24.65" shape-rendering="crispEdges"/><rect fill="#242f38" x="0" y="660.3" width="36.6" height="24.65" shape-rendering="crispEdges"/><rect fill="#242f38" x="36.6" y="660.3" width="85.4" height="24.65" shape-rendering="crispEdges"/><rect fill="#242f38" x="122" y="660.3" width="85.4" height="24.65" shape-rendering="crispEdges"/><rect fill="#242f38" x="207.4" y="660.3" width="85.4" height="24.65" shape-rendering="crispEdges"/><rect fill="#242f38" x="292.8" y="660.3" width="36.6" height="24.65" shape-rendering="crispEdges"/><rect fill="#242f38" x="329.4" y="660.3" width="134.2" height="24.65" shape-rendering="crispEdges"/><rect fill="#242f38" x="463.6" y="660.3" width="36.6" height="24.65" shape-rendering="crispEdges"/><rect fill="#242f38" x="500.2" y="660.3" width="73.2" height="24.65" shape-rendering="crispEdges"/><rect fill="#242f38" x="573.4" y="660.3" width="36.6" height="24.65" shape-rendering="crispEdges"/><rect fill="#242f38" x="610" y="660.3" width="109.8" height="24.65" shape-rendering="crispEdges"/><rect fill="#242f38" x="719.8" y="660.3" width="36.6" height="24.65" shape-rendering="crispEdges"/><rect fill="#242f38" x="756.4" y="660.3" width="97.6" height="24.65" shape-rendering="crispEdges"/><rect fill="#242f38" x="854" y="660.3" width="36.6" height="24.65" shape-rendering="crispEdges"/><rect fill="#242f38" x="890.6" y="660.3" width="97.6" height="24.65" shape-rendering="crispEdges"/><rect fill="#242f38" x="988.2" y="660.3" width="36.6" height="24.65" shape-rendering="crispEdges"/><rect fill="#242f38" x="1024.8" y="660.3" width="48.8" height="24.65" shape-rendering="crispEdges"/><rect fill="#242f38" x="1073.6" y="660.3" width="12.2" height="24.65" shape-rendering="crispEdges"/><rect fill="#242f38" x="1085.8" y="660.3" width="24.4" height="24.65" shape-rendering="crispEdges"/><rect fill="#242f38" x="1110.2" y="660.3" width="97.6" height="24.65" shape-rendering="crispEdges"/><rect fill="#242f38" x="1207.8" y="660.3" width="12.2" height="24.65" shape-rendering="crispEdges"/>
    <g class="terminal-1432917895-matrix">
    <text class="terminal-1432917895-r2" x="12.2" y="20" textLength="12.2" clip-path="url(#terminal-1432917895-line-0)">⭘</text><text class="terminal-1432917895-r2" x="427" y="20" textLength="61" clip-path="url(#terminal-1432917895-line-0)">Trove</text><text class="terminal-1432917895-r3" x="488" y="20" textLength="36.6" clip-path="url(#terminal-1432917895-line-0)">&#160;—&#160;</text><text class="terminal-1432917895-r3" x="524.6" y="20" textLength="231.8" clip-path="url(#terminal-1432917895-line-0)">PSV&#160;GAMES&#160;—&#160;5&#160;items</text><text class="terminal-1432917895-r1" x="1220" y="20" textLength="12.2" clip-path="url(#terminal-1432917895-line-0)">
</text><text class="terminal-1432917895-r2" x="12.2" y="44.4" textLength="73.2" clip-path="url(#terminal-1432917895-line-1)">Browse</text><text class="terminal-1432917895-r4" x="109.8" y="44.4" textLength="109.8" clip-path="url(#terminal-1432917895-line-1)">Downloads</text><text class="terminal-1432917895-r4" x="244" y="44.4" textLength="97.6" clip-path="url(#terminal-1432917895-line-1)">Settings</text><text class="terminal-1432917895-r1" x="1220" y="44.4" textLength="12.2" clip-path="url(#terminal-1432917895-line-1)">
</text><text class="terminal-1432917895-r5" x="0" y="68.8" textLength="12.2" clip-path="url(#terminal-1432917895-line-2)">╸</text><text class="terminal-1432917895-r6" x="12.2" y="68.8" textLength="73.2" clip-path="url(#terminal-1432917895-line-2)">━━━━━━</text><text class="terminal-1432917895-r5" x="85.4" y="68.8" textLength="12.2" clip-path="url(#terminal-1432917895-line-2)">╺</text><text class="terminal-1432917895-r5" x="97.6" y="68.8" textLength="1122.4" clip-path="url(#terminal-1432917895-line-2)">━━━━━━━━━━━━━━━━━━━━━━━━━━━━━━━━━━━━━━━━━━━━━━━━━━━━━━━━━━━━━━━━━━━━━━━━━━━━━━━━━━━━━━━━━━━━</text><text class="terminal-1432917895-r1" x="1220" y="68.8" textLength="12.2" clip-path="url(#terminal-1432917895-line-2)">
</text><text class="terminal-1432917895-r1" x="1220" y="93.2" textLength="12.2" clip-path="url(#terminal-1432917895-line-3)">
</text><text class="terminal-1432917895-r7" x="12.2" y="117.6" textLength="12.2" clip-path="url(#terminal-1432917895-line-4)">▊</text><text class="terminal-1432917895-r8" x="24.4" y="117.6" textLength="170.8" clip-path="url(#terminal-1432917895-line-4)">▔▔▔▔▔▔▔▔▔▔▔▔▔▔</text><text class="terminal-1432917895-r8" x="195.2" y="117.6" textLength="12.2" clip-path="url(#terminal-1432917895-line-4)">▎</text><text class="terminal-1432917895-r7" x="219.6" y="117.6" textLength="12.2" clip-path="url(#terminal-1432917895-line-4)">▊</text><text class="terminal-1432917895-r8" x="231.8" y="117.6" textLength="170.8" clip-path="url(#terminal-1432917895-line-4)">▔▔▔▔▔▔▔▔▔▔▔▔▔▔</text><text class="terminal-1432917895-r8" x="402.6" y="117.6" textLength="12.2" clip-path="url(#terminal-1432917895-line-4)">▎</text><text class="terminal-1432917895-r7" x="427" y="117.6" textLength="12.2" clip-path="url(#terminal-1432917895-line-4)">▊</text><text class="terminal-1432917895-r8" x="439.2" y="117.6" textLength="353.8" clip-path="url(#terminal-1432917895-line-4)">▔▔▔▔▔▔▔▔▔▔▔▔▔▔▔▔▔▔▔▔▔▔▔▔▔▔▔▔▔</text><text class="terminal-1432917895-r8" x="793" y="117.6" textLength="12.2" clip-path="url(#terminal-1432917895-line-4)">▎</text><text class="terminal-1432917895-r7" x="817.4" y="117.6" textLength="12.2" clip-path="url(#terminal-1432917895-line-4)">▊</text><text class="terminal-1432917895-r8" x="829.6" y="117.6" textLength="353.8" clip-path="url(#terminal-1432917895-line-4)">▔▔▔▔▔▔▔▔▔▔▔▔▔▔▔▔▔▔▔▔▔▔▔▔▔▔▔▔▔</text><text class="terminal-1432917895-r8" x="1183.4" y="117.6" textLength="12.2" clip-path="url(#terminal-1432917895-line-4)">▎</text><text class="terminal-1432917895-r1" x="1220" y="117.6" textLength="12.2" clip-path="url(#terminal-1432917895-line-4)">
</text><text class="terminal-1432917895-r7" x="12.2" y="142" textLength="12.2" clip-path="url(#terminal-1432917895-line-5)">▊</text><text class="terminal-1432917895-r2" x="48.8" y="142" textLength="36.6" clip-path="url(#terminal-1432917895-line-5)">PSV</text><text class="terminal-1432917895-r9" x="158.6" y="142" textLength="12.2" clip-path="url(#terminal-1432917895-line-5)">▼</text><text class="terminal-1432917895-r8" x="195.2" y="142" textLength="12.2" clip-path="url(#terminal-1432917895-line-5)">▎</text><text class="terminal-1432917895-r7" x="219.6" y="142" textLength="12.2" clip-path="url(#terminal-1432917895-line-5)">▊</text><text class="terminal-1432917895-r2" x="256.2" y="142" textLength="61" clip-path="url(#terminal-1432917895-line-5)">GAMES</text><text class="terminal-1432917895-r9" x="366" y="142" textLength="12.2" clip-path="url(#terminal-1432917895-line-5)">▼</text><text class="terminal-1432917895-r8" x="402.6" y="142" textLength="12.2" clip-path="url(#terminal-1432917895-line-5)">▎</text><text class="terminal-1432917895-r7" x="427" y="142" textLength="12.2" clip-path="url(#terminal-1432917895-line-5)">▊</text><text class="terminal-1432917895-r10" x="463.6" y="142" textLength="73.2" clip-path="url(#terminal-1432917895-line-5)">region</text><text class="terminal-1432917895-r8" x="793" y="142" textLength="12.2" clip-path="url(#terminal-1432917895-line-5)">▎</text><text class="terminal-1432917895-r7" x="817.4" y="142" textLength="12.2" clip-path="url(#terminal-1432917895-line-5)">▊</text><text class="terminal-1432917895-r10" x="854" y="142" textLength="231.8" clip-path="url(#terminal-1432917895-line-5)">search&#160;title&#160;or&#160;ID…</text><text class="terminal-1432917895-r8" x="1183.4" y="142" textLength="12.2" clip-path="url(#terminal-1432917895-line-5)">▎</text><text class="terminal-1432917895-r1" x="1220" y="142" textLength="12.2" clip-path="url(#terminal-1432917895-line-5)">
</text><text class="terminal-1432917895-r1" x="1220" y="166.4" textLength="12.2" clip-path="url(#terminal-1432917895-line-6)">
</text><text class="terminal-1432917895-r11" x="12.2" y="190.8" textLength="12.2" clip-path="url(#terminal-1432917895-line-7)">╭</text><text class="terminal-1432917895-r11" x="24.4" y="190.8" textLength="1171.2" clip-path="url(#terminal-1432917895-line-7)">────────────────────────────────────────────────────────────────────────────────────────────────</text><text class="terminal-1432917895-r11" x="1195.6" y="190.8" textLength="12.2" clip-path="url(#terminal-1432917895-line-7)">╮</text><text class="terminal-1432917895-r1" x="1220" y="190.8" textLength="12.2" clip-path="url(#terminal-1432917895-line-7)">
</text><text class="terminal-1432917895-r11" x="12.2" y="215.2" textLength="12.2" clip-path="url(#terminal-1432917895-line-8)">│</text><text class="terminal-1432917895-r12" x="48.8" y="215.2" textLength="134.2" clip-path="url(#terminal-1432917895-line-8)">&#160;Title&#160;ID&#160;&#160;</text><text class="terminal-1432917895-r12" x="183" y="215.2" textLength="97.6" clip-path="url(#terminal-1432917895-line-8)">&#160;Region&#160;</text><text class="terminal-1432917895-r12" x="280.6" y="215.2" textLength="268.4" clip-path="url(#terminal-1432917895-line-8)">&#160;Name&#160;&#160;&#160;&#160;&#160;&#160;&#160;&#160;&#160;&#160;&#160;&#160;&#160;&#160;&#160;&#160;&#160;</text><text class="terminal-1432917895-r12" x="549" y="215.2" textLength="109.8" clip-path="url(#terminal-1432917895-line-8)">&#160;Size&#160;&#160;&#160;&#160;</text><text class="terminal-1432917895-r11" x="1195.6" y="215.2" textLength="12.2" clip-path="url(#terminal-1432917895-line-8)">│</text><text class="terminal-1432917895-r1" x="1220" y="215.2" textLength="12.2" clip-path="url(#terminal-1432917895-line-8)">
</text><text class="terminal-1432917895-r11" x="12.2" y="239.6" textLength="12.2" clip-path="url(#terminal-1432917895-line-9)">│</text><text class="terminal-1432917895-r13" x="48.8" y="239.6" textLength="134.2" clip-path="url(#terminal-1432917895-line-9)">&#160;PCSA00099&#160;</text><text class="terminal-1432917895-r13" x="183" y="239.6" textLength="97.6" clip-path="url(#terminal-1432917895-line-9)">&#160;US&#160;&#160;&#160;&#160;&#160;</text><text class="terminal-1432917895-r13" x="280.6" y="239.6" textLength="268.4" clip-path="url(#terminal-1432917895-line-9)">&#160;Tearaway&#160;&#160;&#160;&#160;&#160;&#160;&#160;&#160;&#160;&#160;&#160;&#160;&#160;</text><text class="terminal-1432917895-r13" x="549" y="239.6" textLength="109.8" clip-path="url(#terminal-1432917895-line-9)">&#160;1.2GB&#160;&#160;&#160;</text><text class="terminal-1432917895-r11" x="1195.6" y="239.6" textLength="12.2" clip-path="url(#terminal-1432917895-line-9)">│</text><text class="terminal-1432917895-r1" x="1220" y="239.6" textLength="12.2" clip-path="url(#terminal-1432917895-line-9)">
</text><text class="terminal-1432917895-r11" x="12.2" y="264" textLength="12.2" clip-path="url(#terminal-1432917895-line-10)">│</text><text class="terminal-1432917895-r2" x="48.8" y="264" textLength="134.2" clip-path="url(#terminal-1432917895-line-10)">&#160;PCSB00264&#160;</text><text class="terminal-1432917895-r2" x="183" y="264" textLength="97.6" clip-path="url(#terminal-1432917895-line-10)">&#160;EU&#160;&#160;&#160;&#160;&#160;</text><text class="terminal-1432917895-r2" x="280.6" y="264" textLength="268.4" clip-path="url(#terminal-1432917895-line-10)">&#160;Gravity&#160;Rush&#160;&#160;&#160;&#160;&#160;&#160;&#160;&#160;&#160;</text><text class="terminal-1432917895-r2" x="549" y="264" textLength="109.8" clip-path="url(#terminal-1432917895-line-10)">&#160;3.4GB&#160;&#160;&#160;</text><text class="terminal-1432917895-r11" x="1195.6" y="264" textLength="12.2" clip-path="url(#terminal-1432917895-line-10)">│</text><text class="terminal-1432917895-r1" x="1220" y="264" textLength="12.2" clip-path="url(#terminal-1432917895-line-10)">
</text><text class="terminal-1432917895-r11" x="12.2" y="288.4" textLength="12.2" clip-path="url(#terminal-1432917895-line-11)">│</text><text class="terminal-1432917895-r2" x="48.8" y="288.4" textLength="134.2" clip-path="url(#terminal-1432917895-line-11)">&#160;PCSC00048&#160;</text><text class="terminal-1432917895-r2" x="183" y="288.4" textLength="97.6" clip-path="url(#terminal-1432917895-line-11)">&#160;JP&#160;&#160;&#160;&#160;&#160;</text><text class="terminal-1432917895-r2" x="280.6" y="288.4" textLength="268.4" clip-path="url(#terminal-1432917895-line-11)">&#160;Soul&#160;Sacrifice&#160;Delta&#160;</text><text class="terminal-1432917895-r2" x="549" y="288.4" textLength="109.8" clip-path="url(#terminal-1432917895-line-11)">&#160;858.3MB&#160;</text><text class="terminal-1432917895-r11" x="1195.6" y="288.4" textLength="12.2" clip-path="url(#terminal-1432917895-line-11)">│</text><text class="terminal-1432917895-r1" x="1220" y="288.4" textLength="12.2" clip-path="url(#terminal-1432917895-line-11)">
</text><text class="terminal-1432917895-r11" x="12.2" y="312.8" textLength="12.2" clip-path="url(#terminal-1432917895-line-12)">│</text><text class="terminal-1432917895-r2" x="48.8" y="312.8" textLength="134.2" clip-path="url(#terminal-1432917895-line-12)">&#160;PCSA00111&#160;</text><text class="terminal-1432917895-r2" x="183" y="312.8" textLength="97.6" clip-path="url(#terminal-1432917895-line-12)">&#160;US&#160;&#160;&#160;&#160;&#160;</text><text class="terminal-1432917895-r2" x="280.6" y="312.8" textLength="268.4" clip-path="url(#terminal-1432917895-line-12)">&#160;Persona&#160;4&#160;Golden&#160;&#160;&#160;&#160;&#160;</text><text class="terminal-1432917895-r2" x="549" y="312.8" textLength="109.8" clip-path="url(#terminal-1432917895-line-12)">&#160;3.0GB&#160;&#160;&#160;</text><text class="terminal-1432917895-r11" x="1195.6" y="312.8" textLength="12.2" clip-path="url(#terminal-1432917895-line-12)">│</text><text class="terminal-1432917895-r1" x="1220" y="312.8" textLength="12.2" clip-path="url(#terminal-1432917895-line-12)">
</text><text class="terminal-1432917895-r11" x="12.2" y="337.2" textLength="12.2" clip-path="url(#terminal-1432917895-line-13)">│</text><text class="terminal-1432917895-r2" x="48.8" y="337.2" textLength="134.2" clip-path="url(#terminal-1432917895-line-13)">&#160;PCSF00214&#160;</text><text class="terminal-1432917895-r2" x="183" y="337.2" textLength="97.6" clip-path="url(#terminal-1432917895-line-13)">&#160;EU&#160;&#160;&#160;&#160;&#160;</text><text class="terminal-1432917895-r2" x="280.6" y="337.2" textLength="268.4" clip-path="url(#terminal-1432917895-line-13)">&#160;WipEout&#160;2048&#160;&#160;&#160;&#160;&#160;&#160;&#160;&#160;&#160;</text><text class="terminal-1432917895-r2" x="549" y="337.2" textLength="109.8" clip-path="url(#terminal-1432917895-line-13)">&#160;1.8GB&#160;&#160;&#160;</text><text class="terminal-1432917895-r11" x="1195.6" y="337.2" textLength="12.2" clip-path="url(#terminal-1432917895-line-13)">│</text><text class="terminal-1432917895-r1" x="1220" y="337.2" textLength="12.2" clip-path="url(#terminal-1432917895-line-13)">
</text><text class="terminal-1432917895-r11" x="12.2" y="361.6" textLength="12.2" clip-path="url(#terminal-1432917895-line-14)">│</text><text class="terminal-1432917895-r11" x="1195.6" y="361.6" textLength="12.2" clip-path="url(#terminal-1432917895-line-14)">│</text><text class="terminal-1432917895-r1" x="1220" y="361.6" textLength="12.2" clip-path="url(#terminal-1432917895-line-14)">
</text><text class="terminal-1432917895-r11" x="12.2" y="386" textLength="12.2" clip-path="url(#terminal-1432917895-line-15)">│</text><text class="terminal-1432917895-r11" x="1195.6" y="386" textLength="12.2" clip-path="url(#terminal-1432917895-line-15)">│</text><text class="terminal-1432917895-r1" x="1220" y="386" textLength="12.2" clip-path="url(#terminal-1432917895-line-15)">
</text><text class="terminal-1432917895-r11" x="12.2" y="410.4" textLength="12.2" clip-path="url(#terminal-1432917895-line-16)">│</text><text class="terminal-1432917895-r11" x="1195.6" y="410.4" textLength="12.2" clip-path="url(#terminal-1432917895-line-16)">│</text><text class="terminal-1432917895-r1" x="1220" y="410.4" textLength="12.2" clip-path="url(#terminal-1432917895-line-16)">
</text><text class="terminal-1432917895-r11" x="12.2" y="434.8" textLength="12.2" clip-path="url(#terminal-1432917895-line-17)">│</text><text class="terminal-1432917895-r11" x="1195.6" y="434.8" textLength="12.2" clip-path="url(#terminal-1432917895-line-17)">│</text><text class="terminal-1432917895-r1" x="1220" y="434.8" textLength="12.2" clip-path="url(#terminal-1432917895-line-17)">
</text><text class="terminal-1432917895-r11" x="12.2" y="459.2" textLength="12.2" clip-path="url(#terminal-1432917895-line-18)">│</text><text class="terminal-1432917895-r11" x="1195.6" y="459.2" textLength="12.2" clip-path="url(#terminal-1432917895-line-18)">│</text><text class="terminal-1432917895-r1" x="1220" y="459.2" textLength="12.2" clip-path="url(#terminal-1432917895-line-18)">
</text><text class="terminal-1432917895-r11" x="12.2" y="483.6" textLength="12.2" clip-path="url(#terminal-1432917895-line-19)">│</text><text class="terminal-1432917895-r11" x="1195.6" y="483.6" textLength="12.2" clip-path="url(#terminal-1432917895-line-19)">│</text><text class="terminal-1432917895-r1" x="1220" y="483.6" textLength="12.2" clip-path="url(#terminal-1432917895-line-19)">
</text><text class="terminal-1432917895-r11" x="12.2" y="508" textLength="12.2" clip-path="url(#terminal-1432917895-line-20)">│</text><text class="terminal-1432917895-r11" x="1195.6" y="508" textLength="12.2" clip-path="url(#terminal-1432917895-line-20)">│</text><text class="terminal-1432917895-r1" x="1220" y="508" textLength="12.2" clip-path="url(#terminal-1432917895-line-20)">
</text><text class="terminal-1432917895-r11" x="12.2" y="532.4" textLength="12.2" clip-path="url(#terminal-1432917895-line-21)">│</text><text class="terminal-1432917895-r11" x="1195.6" y="532.4" textLength="12.2" clip-path="url(#terminal-1432917895-line-21)">│</text><text class="terminal-1432917895-r1" x="1220" y="532.4" textLength="12.2" clip-path="url(#terminal-1432917895-line-21)">
</text><text class="terminal-1432917895-r11" x="12.2" y="556.8" textLength="12.2" clip-path="url(#terminal-1432917895-line-22)">│</text><text class="terminal-1432917895-r11" x="1195.6" y="556.8" textLength="12.2" clip-path="url(#terminal-1432917895-line-22)">│</text><text class="terminal-1432917895-r1" x="1220" y="556.8" textLength="12.2" clip-path="url(#terminal-1432917895-line-22)">
</text><text class="terminal-1432917895-r11" x="12.2" y="581.2" textLength="12.2" clip-path="url(#terminal-1432917895-line-23)">│</text><text class="terminal-1432917895-r11" x="1195.6" y="581.2" textLength="12.2" clip-path="url(#terminal-1432917895-line-23)">│</text><text class="terminal-1432917895-r1" x="1220" y="581.2" textLength="12.2" clip-path="url(#terminal-1432917895-line-23)">
</text><text class="terminal-1432917895-r11" x="12.2" y="605.6" textLength="12.2" clip-path="url(#terminal-1432917895-line-24)">╰</text><text class="terminal-1432917895-r11" x="24.4" y="605.6" textLength="1171.2" clip-path="url(#terminal-1432917895-line-24)">────────────────────────────────────────────────────────────────────────────────────────────────</text><text class="terminal-1432917895-r11" x="1195.6" y="605.6" textLength="12.2" clip-path="url(#terminal-1432917895-line-24)">╯</text><text class="terminal-1432917895-r1" x="1220" y="605.6" textLength="12.2" clip-path="url(#terminal-1432917895-line-24)">
</text><text class="terminal-1432917895-r1" x="1220" y="630" textLength="12.2" clip-path="url(#terminal-1432917895-line-25)">
</text><text class="terminal-1432917895-r14" x="0" y="654.4" textLength="341.6" clip-path="url(#terminal-1432917895-line-26)">&#160;selected:&#160;0&#160;&#160;&#160;&#160;shown:&#160;5&#160;/&#160;5</text><text class="terminal-1432917895-r1" x="1220" y="654.4" textLength="12.2" clip-path="url(#terminal-1432917895-line-26)">
</text><text class="terminal-1432917895-r15" x="0" y="678.8" textLength="36.6" clip-path="url(#terminal-1432917895-line-27)">&#160;/&#160;</text><text class="terminal-1432917895-r2" x="36.6" y="678.8" textLength="85.4" clip-path="url(#terminal-1432917895-line-27)">Search&#160;</text><text class="terminal-1432917895-r15" x="122" y="678.8" textLength="85.4" clip-path="url(#terminal-1432917895-line-27)">&#160;space&#160;</text><text class="terminal-1432917895-r2" x="207.4" y="678.8" textLength="85.4" clip-path="url(#terminal-1432917895-line-27)">Select&#160;</text><text class="terminal-1432917895-r15" x="292.8" y="678.8" textLength="36.6" clip-path="url(#terminal-1432917895-line-27)">&#160;a&#160;</text><text class="terminal-1432917895-r2" x="329.4" y="678.8" textLength="134.2" clip-path="url(#terminal-1432917895-line-27)">Select&#160;all&#160;</text><text class="terminal-1432917895-r15" x="463.6" y="678.8" textLength="36.6" clip-path="url(#terminal-1432917895-line-27)">&#160;c&#160;</text><text class="terminal-1432917895-r2" x="500.2" y="678.8" textLength="73.2" clip-path="url(#terminal-1432917895-line-27)">Clear&#160;</text><text class="terminal-1432917895-r15" x="573.4" y="678.8" textLength="36.6" clip-path="url(#terminal-1432917895-line-27)">&#160;d&#160;</text><text class="terminal-1432917895-r2" x="610" y="678.8" textLength="109.8" clip-path="url(#terminal-1432917895-line-27)">Download&#160;</text><text class="terminal-1432917895-r15" x="719.8" y="678.8" textLength="36.6" clip-path="url(#terminal-1432917895-line-27)">&#160;g&#160;</text><text class="terminal-1432917895-r2" x="756.4" y="678.8" textLength="97.6" clip-path="url(#terminal-1432917895-line-27)">→&#160;aria2&#160;</text><text class="terminal-1432917895-r15" x="854" y="678.8" textLength="36.6" clip-path="url(#terminal-1432917895-line-27)">&#160;r&#160;</text><text class="terminal-1432917895-r2" x="890.6" y="678.8" textLength="97.6" clip-path="url(#terminal-1432917895-line-27)">Refresh&#160;</text><text class="terminal-1432917895-r15" x="988.2" y="678.8" textLength="36.6" clip-path="url(#terminal-1432917895-line-27)">&#160;q&#160;</text><text class="terminal-1432917895-r2" x="1024.8" y="678.8" textLength="48.8" clip-path="url(#terminal-1432917895-line-27)">Quit</text><text class="terminal-1432917895-r16" x="1073.6" y="678.8" textLength="12.2" clip-path="url(#terminal-1432917895-line-27)">▏</text><text class="terminal-1432917895-r15" x="1085.8" y="678.8" textLength="24.4" clip-path="url(#terminal-1432917895-line-27)">^p</text><text class="terminal-1432917895-r2" x="1110.2" y="678.8" textLength="97.6" clip-path="url(#terminal-1432917895-line-27)">&#160;palette</text>
    </g>
    </g>
</svg>
