<svg class="rich-terminal" viewBox="0 0 1287 782.0" xmlns="http://www.w3.org/2000/svg">
    <!-- Generated with Rich https://www.textualize.io -->
    <style>

    @font-face {
        font-family: "Fira Code";
        src: local("FiraCode-Regular"),
                url("https://cdnjs.cloudflare.com/ajax/libs/firacode/6.2.0/woff2/FiraCode-Regular.woff2") format("woff2"),
                url("https://cdnjs.cloudflare.com/ajax/libs/firacode/6.2.0/woff/FiraCode-Regular.woff") format("woff");
        font-style: normal;
        font-weight: 400;
    }
    @font-face {
        font-family: "Fira Code";
        src: local("FiraCode-Bold"),
                url("https://cdnjs.cloudflare.com/ajax/libs/firacode/6.2.0/woff2/FiraCode-Bold.woff2") format("woff2"),
                url("https://cdnjs.cloudflare.com/ajax/libs/firacode/6.2.0/woff/FiraCode-Bold.woff") format("woff");
        font-style: bold;
        font-weight: 700;
    }

    .terminal-3827601330-matrix {
        font-family: Fira Code, monospace;
        font-size: 20px;
        line-height: 24.4px;
        font-variant-east-asian: full-width;
    }

    .terminal-3827601330-title {
        font-size: 18px;
        font-weight: bold;
        font-family: arial;
    }

    .terminal-3827601330-r1 { fill: #c5c8c6 }
.terminal-3827601330-r2 { fill: #e0e0e0 }
.terminal-3827601330-r3 { fill: #a0a3a6 }
.terminal-3827601330-r4 { fill: #797979 }
.terminal-3827601330-r5 { fill: #262626 }
.terminal-3827601330-r6 { fill: #0178d4 }
.terminal-3827601330-r7 { fill: #4ebf71 }
.terminal-3827601330-r8 { fill: #242f38 }
.terminal-3827601330-r9 { fill: #1e1e1e }
.terminal-3827601330-r10 { fill: #a7abaf }
.terminal-3827601330-r11 { fill: #ffa62b;font-weight: bold }
.terminal-3827601330-r12 { fill: #495259 }
    </style>

    <defs>
    <clipPath id="terminal-3827601330-clip-terminal">
      <rect x="0" y="0" width="1267.8" height="731.0" />
    </clipPath>
    <clipPath id="terminal-3827601330-line-0">
    <rect x="0" y="1.5" width="1268.8" height="24.65"/>
            </clipPath>
<clipPath id="terminal-3827601330-line-1">
    <rect x="0" y="25.9" width="1268.8" height="24.65"/>
            </clipPath>
<clipPath id="terminal-3827601330-line-2">
    <rect x="0" y="50.3" width="1268.8" height="24.65"/>
            </clipPath>
<clipPath id="terminal-3827601330-line-3">
    <rect x="0" y="74.7" width="1268.8" height="24.65"/>
            </clipPath>
<clipPath id="terminal-3827601330-line-4">
    <rect x="0" y="99.1" width="1268.8" height="24.65"/>
            </clipPath>
<clipPath id="terminal-3827601330-line-5">
    <rect x="0" y="123.5" width="1268.8" height="24.65"/>
            </clipPath>
<clipPath id="terminal-3827601330-line-6">
    <rect x="0" y="147.9" width="1268.8" height="24.65"/>
            </clipPath>
<clipPath id="terminal-3827601330-line-7">
    <rect x="0" y="172.3" width="1268.8" height="24.65"/>
            </clipPath>
<clipPath id="terminal-3827601330-line-8">
    <rect x="0" y="196.7" width="1268.8" height="24.65"/>
            </clipPath>
<clipPath id="terminal-3827601330-line-9">
    <rect x="0" y="221.1" width="1268.8" height="24.65"/>
            </clipPath>
<clipPath id="terminal-3827601330-line-10">
    <rect x="0" y="245.5" width="1268.8" height="24.65"/>
            </clipPath>
<clipPath id="terminal-3827601330-line-11">
    <rect x="0" y="269.9" width="1268.8" height="24.65"/>
            </clipPath>
<clipPath id="terminal-3827601330-line-12">
    <rect x="0" y="294.3" width="1268.8" height="24.65"/>
            </clipPath>
<clipPath id="terminal-3827601330-line-13">
    <rect x="0" y="318.7" width="1268.8" height="24.65"/>
            </clipPath>
<clipPath id="terminal-3827601330-line-14">
    <rect x="0" y="343.1" width="1268.8" height="24.65"/>
            </clipPath>
<clipPath id="terminal-3827601330-line-15">
    <rect x="0" y="367.5" width="1268.8" height="24.65"/>
            </clipPath>
<clipPath id="terminal-3827601330-line-16">
    <rect x="0" y="391.9" width="1268.8" height="24.65"/>
            </clipPath>
<clipPath id="terminal-3827601330-line-17">
    <rect x="0" y="416.3" width="1268.8" height="24.65"/>
            </clipPath>
<clipPath id="terminal-3827601330-line-18">
    <rect x="0" y="440.7" width="1268.8" height="24.65"/>
            </clipPath>
<clipPath id="terminal-3827601330-line-19">
    <rect x="0" y="465.1" width="1268.8" height="24.65"/>
            </clipPath>
<clipPath id="terminal-3827601330-line-20">
    <rect x="0" y="489.5" width="1268.8" height="24.65"/>
            </clipPath>
<clipPath id="terminal-3827601330-line-21">
    <rect x="0" y="513.9" width="1268.8" height="24.65"/>
            </clipPath>
<clipPath id="terminal-3827601330-line-22">
    <rect x="0" y="538.3" width="1268.8" height="24.65"/>
            </clipPath>
<clipPath id="terminal-3827601330-line-23">
    <rect x="0" y="562.7" width="1268.8" height="24.65"/>
            </clipPath>
<clipPath id="terminal-3827601330-line-24">
    <rect x="0" y="587.1" width="1268.8" height="24.65"/>
            </clipPath>
<clipPath id="terminal-3827601330-line-25">
    <rect x="0" y="611.5" width="1268.8" height="24.65"/>
            </clipPath>
<clipPath id="terminal-3827601330-line-26">
    <rect x="0" y="635.9" width="1268.8" height="24.65"/>
            </clipPath>
<clipPath id="terminal-3827601330-line-27">
    <rect x="0" y="660.3" width="1268.8" height="24.65"/>
            </clipPath>
<clipPath id="terminal-3827601330-line-28">
    <rect x="0" y="684.7" width="1268.8" height="24.65"/>
            </clipPath>
    </defs>

    <rect fill="#292929" stroke="rgba(255,255,255,0.35)" stroke-width="1" x="1" y="1" width="1285" height="780" rx="8"/><text class="terminal-3827601330-title" fill="#c5c8c6" text-anchor="middle" x="642" y="27">Trove</text>
            <g transform="translate(26,22)">
            <circle cx="0" cy="0" r="7" fill="#ff5f57"/>
            <circle cx="22" cy="0" r="7" fill="#febc2e"/>
            <circle cx="44" cy="0" r="7" fill="#28c840"/>
            </g>
        
    <g transform="translate(9, 41)" clip-path="url(#terminal-3827601330-clip-terminal)">
    <rect fill="#242f38" x="0" y="1.5" width="12.2" height="24.65" shape-rendering="crispEdges"/><rect fill="#242f38" x="12.2" y="1.5" width="12.2" height="24.65" shape-rendering="crispEdges"/><rect fill="#242f38" x="24.4" y="1.5" width="61" height="24.65" shape-rendering="crispEdges"/><rect fill="#242f38" x="85.4" y="1.5" width="12.2" height="24.65" shape-rendering="crispEdges"/><rect fill="#242f38" x="97.6" y="1.5" width="329.4" height="24.65" shape-rendering="crispEdges"/><rect fill="#242f38" x="427" y="1.5" width="61" height="24.65" shape-rendering="crispEdges"/><rect fill="#242f38" x="488" y="1.5" width="36.6" height="24.65" shape-rendering="crispEdges"/><rect fill="#242f38" x="524.6" y="1.5" width="280.6" height="24.65" shape-rendering="crispEdges"/><rect fill="#242f38" x="805.2" y="1.5" width="341.6" height="24.65" shape-rendering="crispEdges"/><rect fill="#242f38" x="1146.8" y="1.5" width="12.2" height="24.65" shape-rendering="crispEdges"/><rect fill="#242f38" x="1159" y="1.5" width="0" height="24.65" shape-rendering="crispEdges"/><rect fill="#242f38" x="1159" y="1.5" width="97.6" height="24.65" shape-rendering="crispEdges"/><rect fill="#242f38" x="1256.6" y="1.5" width="12.2" height="24.65" shape-rendering="crispEdges"/><rect fill="#121212" x="0" y="25.9" width="12.2" height="24.65" shape-rendering="crispEdges"/><rect fill="#121212" x="12.2" y="25.9" width="73.2" height="24.65" shape-rendering="crispEdges"/><rect fill="#121212" x="85.4" y="25.9" width="12.2" height="24.65" shape-rendering="crispEdges"/><rect fill="#121212" x="97.6" y="25.9" width="12.2" height="24.65" shape-rendering="crispEdges"/><rect fill="#121212" x="109.8" y="25.9" width="109.8" height="24.65" shape-rendering="crispEdges"/><rect fill="#121212" x="219.6" y="25.9" width="12.2" height="24.65" shape-rendering="crispEdges"/><rect fill="#121212" x="231.8" y="25.9" width="1037" height="24.65" shape-rendering="crispEdges"/><rect fill="#121212" x="0" y="50.3" width="97.6" height="24.65" shape-rendering="crispEdges"/><rect fill="#121212" x="97.6" y="50.3" width="12.2" height="24.65" shape-rendering="crispEdges"/><rect fill="#121212" x="109.8" y="50.3" width="109.8" height="24.65" shape-rendering="crispEdges"/><rect fill="#121212" x="219.6" y="50.3" width="12.2" height="24.65" shape-rendering="crispEdges"/><rect fill="#121212" x="231.8" y="50.3" width="1037" height="24.65" shape-rendering="crispEdges"/><rect fill="#121212" x="0" y="74.7" width="1268.8" height="24.65" shape-rendering="crispEdges"/><rect fill="#121212" x="0" y="99.1" width="12.2" height="24.65" shape-rendering="crispEdges"/><rect fill="#121212" x="12.2" y="99.1" width="12.2" height="24.65" shape-rendering="crispEdges"/><rect fill="#121212" x="24.4" y="99.1" width="329.4" height="24.65" shape-rendering="crispEdges"/><rect fill="#121212" x="353.8" y="99.1" width="890.6" height="24.65" shape-rendering="crispEdges"/><rect fill="#121212" x="1244.4" y="99.1" width="12.2" height="24.65" shape-rendering="crispEdges"/><rect fill="#121212" x="1256.6" y="99.1" width="12.2" height="24.65" shape-rendering="crispEdges"/><rect fill="#121212" x="0" y="123.5" width="12.2" height="24.65" shape-rendering="crispEdges"/><rect fill="#121212" x="12.2" y="123.5" width="12.2" height="24.65" shape-rendering="crispEdges"/><rect fill="#121212" x="24.4" y="123.5" width="390.4" height="24.65" shape-rendering="crispEdges"/><rect fill="#121212" x="414.8" y="123.5" width="12.2" height="24.65" shape-rendering="crispEdges"/><rect fill="#121212" x="427" y="123.5" width="48.8" height="24.65" shape-rendering="crispEdges"/><rect fill="#121212" x="475.8" y="123.5" width="12.2" height="24.65" shape-rendering="crispEdges"/><rect fill="#121212" x="488" y="123.5" width="97.6" height="24.65" shape-rendering="crispEdges"/><rect fill="#121212" x="585.6" y="123.5" width="658.8" height="24.65" shape-rendering="crispEdges"/><rect fill="#121212" x="1244.4" y="123.5" width="12.2" height="24.65" shape-rendering="crispEdges"/><rect fill="#121212" x="1256.6" y="123.5" width="12.2" height="24.65" shape-rendering="crispEdges"/><rect fill="#121212" x="0" y="147.9" width="12.2" height="24.65" shape-rendering="crispEdges"/><rect fill="#121212" x="12.2" y="147.9" width="1244.4" height="24.65" shape-rendering="crispEdges"/><rect fill="#121212" x="1256.6" y="147.9" width="12.2" height="24.65" shape-rendering="crispEdges"/><rect fill="#121212" x="0" y="172.3" width="12.2" height="24.65" shape-rendering="crispEdges"/><rect fill="#121212" x="12.2" y="172.3" width="12.2" height="24.65" shape-rendering="crispEdges"/><rect fill="#121212" x="24.4" y="172.3" width="475.8" height="24.65" shape-rendering="crispEdges"/><rect fill="#121212" x="500.2" y="172.3" width="744.2" height="24.65" shape-rendering="crispEdges"/><rect fill="#121212" x="1244.4" y="172.3" width="12.2" height="24.65" shape-rendering="crispEdges"/><rect fill="#121212" x="1256.6" y="172.3" width="12.2" height="24.65" shape-rendering="crispEdges"/><rect fill="#121212" x="0" y="196.7" width="12.2" height="24.65" shape-rendering="crispEdges"/><rect fill="#121212" x="12.2" y="196.7" width="12.2" height="24.65" shape-rendering="crispEdges"/><rect fill="#121212" x="24.4" y="196.7" width="256.2" height="24.65" shape-rendering="crispEdges"/><rect fill="#121212" x="280.6" y="196.7" width="12.2" height="24.65" shape-rendering="crispEdges"/><rect fill="#121212" x="292.8" y="196.7" width="122" height="24.65" shape-rendering="crispEdges"/><rect fill="#121212" x="414.8" y="196.7" width="24.4" height="24.65" shape-rendering="crispEdges"/><rect fill="#121212" x="439.2" y="196.7" width="36.6" height="24.65" shape-rendering="crispEdges"/><rect fill="#121212" x="475.8" y="196.7" width="12.2" height="24.65" shape-rendering="crispEdges"/><rect fill="#121212" x="488" y="196.7" width="97.6" height="24.65" shape-rendering="crispEdges"/><rect fill="#121212" x="585.6" y="196.7" width="658.8" height="24.65" shape-rendering="crispEdges"/><rect fill="#121212" x="1244.4" y="196.7" width="12.2" height="24.65" shape-rendering="crispEdges"/><rect fill="#121212" x="1256.6" y="196.7" width="12.2" height="24.65" shape-rendering="crispEdges"/><rect fill="#121212" x="0" y="221.1" width="12.2" height="24.65" shape-rendering="crispEdges"/><rect fill="#121212" x="12.2" y="221.1" width="1244.4" height="24.65" shape-rendering="crispEdges"/><rect fill="#121212" x="1256.6" y="221.1" width="12.2" height="24.65" shape-rendering="crispEdges"/><rect fill="#121212" x="0" y="245.5" width="12.2" height="24.65" shape-rendering="crispEdges"/><rect fill="#121212" x="12.2" y="245.5" width="12.2" height="24.65" shape-rendering="crispEdges"/><rect fill="#121212" x="24.4" y="245.5" width="707.6" height="24.65" shape-rendering="crispEdges"/><rect fill="#121212" x="732" y="245.5" width="512.4" height="24.65" shape-rendering="crispEdges"/><rect fill="#121212" x="1244.4" y="245.5" width="12.2" height="24.65" shape-rendering="crispEdges"/><rect fill="#121212" x="1256.6" y="245.5" width="12.2" height="24.65" shape-rendering="crispEdges"/><rect fill="#121212" x="0" y="269.9" width="12.2" height="24.65" shape-rendering="crispEdges"/><rect fill="#121212" x="12.2" y="269.9" width="12.2" height="24.65" shape-rendering="crispEdges"/><rect fill="#121212" x="24.4" y="269.9" width="109.8" height="24.65" shape-rendering="crispEdges"/><rect fill="#121212" x="134.2" y="269.9" width="12.2" height="24.65" shape-rendering="crispEdges"/><rect fill="#121212" x="146.4" y="269.9" width="268.4" height="24.65" shape-rendering="crispEdges"/><rect fill="#121212" x="414.8" y="269.9" width="24.4" height="24.65" shape-rendering="crispEdges"/><rect fill="#121212" x="439.2" y="269.9" width="36.6" height="24.65" shape-rendering="crispEdges"/><rect fill="#121212" x="475.8" y="269.9" width="12.2" height="24.65" shape-rendering="crispEdges"/><rect fill="#121212" x="488" y="269.9" width="97.6" height="24.65" shape-rendering="crispEdges"/><rect fill="#121212" x="585.6" y="269.9" width="658.8" height="24.65" shape-rendering="crispEdges"/><rect fill="#121212" x="1244.4" y="269.9" width="12.2" height="24.65" shape-rendering="crispEdges"/><rect fill="#121212" x="1256.6" y="269.9" width="12.2" height="24.65" shape-rendering="crispEdges"/><rect fill="#121212" x="0" y="294.3" width="12.2" height="24.65" shape-rendering="crispEdges"/><rect fill="#121212" x="12.2" y="294.3" width="1244.4" height="24.65" shape-rendering="crispEdges"/><rect fill="#121212" x="1256.6" y="294.3" width="12.2" height="24.65" shape-rendering="crispEdges"/><rect fill="#121212" x="0" y="318.7" width="12.2" height="24.65" shape-rendering="crispEdges"/><rect fill="#121212" x="12.2" y="318.7" width="12.2" height="24.65" shape-rendering="crispEdges"/><rect fill="#121212" x="24.4" y="318.7" width="707.6" height="24.65" shape-rendering="crispEdges"/><rect fill="#121212" x="732" y="318.7" width="512.4" height="24.65" shape-rendering="crispEdges"/><rect fill="#121212" x="1244.4" y="318.7" width="12.2" height="24.65" shape-rendering="crispEdges"/><rect fill="#121212" x="1256.6" y="318.7" width="12.2" height="24.65" shape-rendering="crispEdges"/><rect fill="#121212" x="0" y="343.1" width="12.2" height="24.65" shape-rendering="crispEdges"/><rect fill="#121212" x="12.2" y="343.1" width="12.2" height="24.65" shape-rendering="crispEdges"/><rect fill="#121212" x="24.4" y="343.1" width="24.4" height="24.65" shape-rendering="crispEdges"/><rect fill="#121212" x="48.8" y="343.1" width="12.2" height="24.65" shape-rendering="crispEdges"/><rect fill="#121212" x="61" y="343.1" width="353.8" height="24.65" shape-rendering="crispEdges"/><rect fill="#121212" x="414.8" y="343.1" width="36.6" height="24.65" shape-rendering="crispEdges"/><rect fill="#121212" x="451.4" y="343.1" width="24.4" height="24.65" shape-rendering="crispEdges"/><rect fill="#121212" x="475.8" y="343.1" width="12.2" height="24.65" shape-rendering="crispEdges"/><rect fill="#121212" x="488" y="343.1" width="97.6" height="24.65" shape-rendering="crispEdges"/><rect fill="#121212" x="585.6" y="343.1" width="658.8" height="24.65" shape-rendering="crispEdges"/><rect fill="#121212" x="1244.4" y="343.1" width="12.2" height="24.65" shape-rendering="crispEdges"/><rect fill="#121212" x="1256.6" y="343.1" width="12.2" height="24.65" shape-rendering="crispEdges"/><rect fill="#121212" x="0" y="367.5" width="12.2" height="24.65" shape-rendering="crispEdges"/><rect fill="#121212" x="12.2" y="367.5" width="1244.4" height="24.65" shape-rendering="crispEdges"/><rect fill="#121212" x="1256.6" y="367.5" width="12.2" height="24.65" shape-rendering="crispEdges"/><rect fill="#121212" x="0" y="391.9" width="12.2" height="24.65" shape-rendering="crispEdges"/><rect fill="#121212" x="12.2" y="391.9" width="1244.4" height="24.65" shape-rendering="crispEdges"/><rect fill="#121212" x="1256.6" y="391.9" width="12.2" height="24.65" shape-rendering="crispEdges"/><rect fill="#121212" x="0" y="416.3" width="12.2" height="24.65" shape-rendering="crispEdges"/><rect fill="#121212" x="12.2" y="416.3" width="1244.4" height="24.65" shape-rendering="crispEdges"/><rect fill="#121212" x="1256.6" y="416.3" width="12.2" height="24.65" shape-rendering="crispEdges"/><rect fill="#121212" x="0" y="440.7" width="12.2" height="24.65" shape-rendering="crispEdges"/><rect fill="#121212" x="12.2" y="440.7" width="1244.4" height="24.65" shape-rendering="crispEdges"/><rect fill="#121212" x="1256.6" y="440.7" width="12.2" height="24.65" shape-rendering="crispEdges"/><rect fill="#121212" x="0" y="465.1" width="12.2" height="24.65" shape-rendering="crispEdges"/><rect fill="#121212" x="12.2" y="465.1" width="1244.4" height="24.65" shape-rendering="crispEdges"/><rect fill="#121212" x="1256.6" y="465.1" width="12.2" height="24.65" shape-rendering="crispEdges"/><rect fill="#121212" x="0" y="489.5" width="12.2" height="24.65" shape-rendering="crispEdges"/><rect fill="#121212" x="12.2" y="489.5" width="1244.4" height="24.65" shape-rendering="crispEdges"/><rect fill="#121212" x="1256.6" y="489.5" width="12.2" height="24.65" shape-rendering="crispEdges"/><rect fill="#121212" x="0" y="513.9" width="12.2" height="24.65" shape-rendering="crispEdges"/><rect fill="#121212" x="12.2" y="513.9" width="1244.4" height="24.65" shape-rendering="crispEdges"/><rect fill="#121212" x="1256.6" y="513.9" width="12.2" height="24.65" shape-rendering="crispEdges"/><rect fill="#121212" x="0" y="538.3" width="12.2" height="24.65" shape-rendering="crispEdges"/><rect fill="#121212" x="12.2" y="538.3" width="1244.4" height="24.65" shape-rendering="crispEdges"/><rect fill="#121212" x="1256.6" y="538.3" width="12.2" height="24.65" shape-rendering="crispEdges"/><rect fill="#121212" x="0" y="562.7" width="12.2" height="24.65" shape-rendering="crispEdges"/><rect fill="#121212" x="12.2" y="562.7" width="1244.4" height="24.65" shape-rendering="crispEdges"/><rect fill="#121212" x="1256.6" y="562.7" width="12.2" height="24.65" shape-rendering="crispEdges"/><rect fill="#121212" x="0" y="587.1" width="12.2" height="24.65" shape-rendering="crispEdges"/><rect fill="#121212" x="12.2" y="587.1" width="1244.4" height="24.65" shape-rendering="crispEdges"/><rect fill="#121212" x="1256.6" y="587.1" width="12.2" height="24.65" shape-rendering="crispEdges"/><rect fill="#121212" x="0" y="611.5" width="12.2" height="24.65" shape-rendering="crispEdges"/><rect fill="#121212" x="12.2" y="611.5" width="1244.4" height="24.65" shape-rendering="crispEdges"/><rect fill="#121212" x="1256.6" y="611.5" width="12.2" height="24.65" shape-rendering="crispEdges"/><rect fill="#121212" x="0" y="635.9" width="12.2" height="24.65" shape-rendering="crispEdges"/><rect fill="#121212" x="12.2" y="635.9" width="1244.4" height="24.65" shape-rendering="crispEdges"/><rect fill="#121212" x="1256.6" y="635.9" width="12.2" height="24.65" shape-rendering="crispEdges"/><rect fill="#121212" x="0" y="660.3" width="1268.8" height="24.65" shape-rendering="crispEdges"/><rect fill="#242f38" x="0" y="684.7" width="366" height="24.65" shape-rendering="crispEdges"/><rect fill="#242f38" x="366" y="684.7" width="902.8" height="24.65" shape-rendering="crispEdges"/><rect fill="#242f38" x="0" y="709.1" width="36.6" height="24.65" shape-rendering="crispEdges"/><rect fill="#242f38" x="36.6" y="709.1" width="85.4" height="24.65" shape-rendering="crispEdges"/><rect fill="#242f38" x="122" y="709.1" width="85.4" height="24.65" shape-rendering="crispEdges"/><rect fill="#242f38" x="207.4" y="709.1" width="85.4" height="24.65" shape-rendering="crispEdges"/><rect fill="#242f38" x="292.8" y="709.1" width="36.6" height="24.65" shape-rendering="crispEdges"/><rect fill="#242f38" x="329.4" y="709.1" width="134.2" height="24.65" shape-rendering="crispEdges"/><rect fill="#242f38" x="463.6" y="709.1" width="36.6" height="24.65" shape-rendering="crispEdges"/><rect fill="#242f38" x="500.2" y="709.1" width="73.2" height="24.65" shape-rendering="crispEdges"/><rect fill="#242f38" x="573.4" y="709.1" width="36.6" height="24.65" shape-rendering="crispEdges"/><rect fill="#242f38" x="610" y="709.1" width="109.8" height="24.65" shape-rendering="crispEdges"/><rect fill="#242f38" x="719.8" y="709.1" width="36.6" height="24.65" shape-rendering="crispEdges"/><rect fill="#242f38" x="756.4" y="709.1" width="97.6" height="24.65" shape-rendering="crispEdges"/><rect fill="#242f38" x="854" y="709.1" width="36.6" height="24.65" shape-rendering="crispEdges"/><rect fill="#242f38" x="890.6" y="709.1" width="97.6" height="24.65" shape-rendering="crispEdges"/><rect fill="#242f38" x="988.2" y="709.1" width="36.6" height="24.65" shape-rendering="crispEdges"/><rect fill="#242f38" x="1024.8" y="709.1" width="61" height="24.65" shape-rendering="crispEdges"/><rect fill="#242f38" x="1085.8" y="709.1" width="36.6" height="24.65" shape-rendering="crispEdges"/><rect fill="#242f38" x="1122.4" y="709.1" width="12.2" height="24.65" shape-rendering="crispEdges"/><rect fill="#242f38" x="1134.6" y="709.1" width="24.4" height="24.65" shape-rendering="crispEdges"/><rect fill="#242f38" x="1159" y="709.1" width="97.6" height="24.65" shape-rendering="crispEdges"/><rect fill="#242f38" x="1256.6" y="709.1" width="12.2" height="24.65" shape-rendering="crispEdges"/>
    <g class="terminal-3827601330-matrix">
    <text class="terminal-3827601330-r2" x="12.2" y="20" textLength="12.2" clip-path="url(#terminal-3827601330-line-0)">⭘</text><text class="terminal-3827601330-r2" x="427" y="20" textLength="61" clip-path="url(#terminal-3827601330-line-0)">Trove</text><text class="terminal-3827601330-r3" x="488" y="20" textLength="36.6" clip-path="url(#terminal-3827601330-line-0)">&#160;—&#160;</text><text class="terminal-3827601330-r3" x="524.6" y="20" textLength="280.6" clip-path="url(#terminal-3827601330-line-0)">PSV&#160;GAMES&#160;—&#160;3,793&#160;items</text><text class="terminal-3827601330-r1" x="1268.8" y="20" textLength="12.2" clip-path="url(#terminal-3827601330-line-0)">
</text><text class="terminal-3827601330-r4" x="12.2" y="44.4" textLength="73.2" clip-path="url(#terminal-3827601330-line-1)">Browse</text><text class="terminal-3827601330-r2" x="109.8" y="44.4" textLength="109.8" clip-path="url(#terminal-3827601330-line-1)">Downloads</text><text class="terminal-3827601330-r1" x="1268.8" y="44.4" textLength="12.2" clip-path="url(#terminal-3827601330-line-1)">
</text><text class="terminal-3827601330-r5" x="0" y="68.8" textLength="97.6" clip-path="url(#terminal-3827601330-line-2)">━━━━━━━━</text><text class="terminal-3827601330-r5" x="97.6" y="68.8" textLength="12.2" clip-path="url(#terminal-3827601330-line-2)">╸</text><text class="terminal-3827601330-r6" x="109.8" y="68.8" textLength="109.8" clip-path="url(#terminal-3827601330-line-2)">━━━━━━━━━</text><text class="terminal-3827601330-r5" x="219.6" y="68.8" textLength="12.2" clip-path="url(#terminal-3827601330-line-2)">╺</text><text class="terminal-3827601330-r5" x="231.8" y="68.8" textLength="1037" clip-path="url(#terminal-3827601330-line-2)">━━━━━━━━━━━━━━━━━━━━━━━━━━━━━━━━━━━━━━━━━━━━━━━━━━━━━━━━━━━━━━━━━━━━━━━━━━━━━━━━━━━━━</text><text class="terminal-3827601330-r1" x="1268.8" y="68.8" textLength="12.2" clip-path="url(#terminal-3827601330-line-2)">
</text><text class="terminal-3827601330-r1" x="1268.8" y="93.2" textLength="12.2" clip-path="url(#terminal-3827601330-line-3)">
</text><text class="terminal-3827601330-r2" x="24.4" y="117.6" textLength="329.4" clip-path="url(#terminal-3827601330-line-4)">PCSE00120&#160;&#160;Persona&#160;4&#160;Golden</text><text class="terminal-3827601330-r1" x="1268.8" y="117.6" textLength="12.2" clip-path="url(#terminal-3827601330-line-4)">
</text><text class="terminal-3827601330-r7" x="24.4" y="142" textLength="390.4" clip-path="url(#terminal-3827601330-line-5)">━━━━━━━━━━━━━━━━━━━━━━━━━━━━━━━━</text><text class="terminal-3827601330-r2" x="427" y="142" textLength="48.8" clip-path="url(#terminal-3827601330-line-5)">100%</text><text class="terminal-3827601330-r2" x="488" y="142" textLength="97.6" clip-path="url(#terminal-3827601330-line-5)">--:--:--</text><text class="terminal-3827601330-r1" x="1268.8" y="142" textLength="12.2" clip-path="url(#terminal-3827601330-line-5)">
</text><text class="terminal-3827601330-r8" x="12.2" y="166.4" textLength="1244.4" clip-path="url(#terminal-3827601330-line-6)">▁▁▁▁▁▁▁▁▁▁▁▁▁▁▁▁▁▁▁▁▁▁▁▁▁▁▁▁▁▁▁▁▁▁▁▁▁▁▁▁▁▁▁▁▁▁▁▁▁▁▁▁▁▁▁▁▁▁▁▁▁▁▁▁▁▁▁▁▁▁▁▁▁▁▁▁▁▁▁▁▁▁▁▁▁▁▁▁▁▁▁▁▁▁▁▁▁▁▁▁▁▁</text><text class="terminal-3827601330-r1" x="1268.8" y="166.4" textLength="12.2" clip-path="url(#terminal-3827601330-line-6)">
</text><text class="terminal-3827601330-r2" x="24.4" y="190.8" textLength="475.8" clip-path="url(#terminal-3827601330-line-7)">PCSE00764&#160;&#160;Persona&#160;4:&#160;Dancing&#160;All&#160;Night</text><text class="terminal-3827601330-r1" x="1268.8" y="190.8" textLength="12.2" clip-path="url(#terminal-3827601330-line-7)">
</text><text class="terminal-3827601330-r6" x="24.4" y="215.2" textLength="256.2" clip-path="url(#terminal-3827601330-line-8)">━━━━━━━━━━━━━━━━━━━━━</text><text class="terminal-3827601330-r9" x="280.6" y="215.2" textLength="12.2" clip-path="url(#terminal-3827601330-line-8)">╺</text><text class="terminal-3827601330-r9" x="292.8" y="215.2" textLength="122" clip-path="url(#terminal-3827601330-line-8)">━━━━━━━━━━</text><text class="terminal-3827601330-r2" x="439.2" y="215.2" textLength="36.6" clip-path="url(#terminal-3827601330-line-8)">66%</text><text class="terminal-3827601330-r2" x="488" y="215.2" textLength="97.6" clip-path="url(#terminal-3827601330-line-8)">--:--:--</text><text class="terminal-3827601330-r1" x="1268.8" y="215.2" textLength="12.2" clip-path="url(#terminal-3827601330-line-8)">
</text><text class="terminal-3827601330-r8" x="12.2" y="239.6" textLength="1244.4" clip-path="url(#terminal-3827601330-line-9)">▁▁▁▁▁▁▁▁▁▁▁▁▁▁▁▁▁▁▁▁▁▁▁▁▁▁▁▁▁▁▁▁▁▁▁▁▁▁▁▁▁▁▁▁▁▁▁▁▁▁▁▁▁▁▁▁▁▁▁▁▁▁▁▁▁▁▁▁▁▁▁▁▁▁▁▁▁▁▁▁▁▁▁▁▁▁▁▁▁▁▁▁▁▁▁▁▁▁▁▁▁▁</text><text class="terminal-3827601330-r1" x="1268.8" y="239.6" textLength="12.2" clip-path="url(#terminal-3827601330-line-9)">
</text><text class="terminal-3827601330-r2" x="24.4" y="264" textLength="707.6" clip-path="url(#terminal-3827601330-line-10)">PCSE01274&#160;&#160;Persona&#160;3:&#160;Dancing&#160;in&#160;Moonlight&#160;(3.61+!)&#160;[3.68]</text><text class="terminal-3827601330-r1" x="1268.8" y="264" textLength="12.2" clip-path="url(#terminal-3827601330-line-10)">
</text><text class="terminal-3827601330-r6" x="24.4" y="288.4" textLength="109.8" clip-path="url(#terminal-3827601330-line-11)">━━━━━━━━━</text><text class="terminal-3827601330-r6" x="134.2" y="288.4" textLength="12.2" clip-path="url(#terminal-3827601330-line-11)">╸</text><text class="terminal-3827601330-r9" x="146.4" y="288.4" textLength="268.4" clip-path="url(#terminal-3827601330-line-11)">━━━━━━━━━━━━━━━━━━━━━━</text><text class="terminal-3827601330-r2" x="439.2" y="288.4" textLength="36.6" clip-path="url(#terminal-3827601330-line-11)">31%</text><text class="terminal-3827601330-r2" x="488" y="288.4" textLength="97.6" clip-path="url(#terminal-3827601330-line-11)">--:--:--</text><text class="terminal-3827601330-r1" x="1268.8" y="288.4" textLength="12.2" clip-path="url(#terminal-3827601330-line-11)">
</text><text class="terminal-3827601330-r8" x="12.2" y="312.8" textLength="1244.4" clip-path="url(#terminal-3827601330-line-12)">▁▁▁▁▁▁▁▁▁▁▁▁▁▁▁▁▁▁▁▁▁▁▁▁▁▁▁▁▁▁▁▁▁▁▁▁▁▁▁▁▁▁▁▁▁▁▁▁▁▁▁▁▁▁▁▁▁▁▁▁▁▁▁▁▁▁▁▁▁▁▁▁▁▁▁▁▁▁▁▁▁▁▁▁▁▁▁▁▁▁▁▁▁▁▁▁▁▁▁▁▁▁</text><text class="terminal-3827601330-r1" x="1268.8" y="312.8" textLength="12.2" clip-path="url(#terminal-3827601330-line-12)">
</text><text class="terminal-3827601330-r2" x="24.4" y="337.2" textLength="707.6" clip-path="url(#terminal-3827601330-line-13)">PCSE01275&#160;&#160;Persona&#160;5:&#160;Dancing&#160;in&#160;Starlight&#160;(3.61+!)&#160;[3.68]</text><text class="terminal-3827601330-r1" x="1268.8" y="337.2" textLength="12.2" clip-path="url(#terminal-3827601330-line-13)">
</text><text class="terminal-3827601330-r6" x="24.4" y="361.6" textLength="24.4" clip-path="url(#terminal-3827601330-line-14)">━━</text><text class="terminal-3827601330-r9" x="48.8" y="361.6" textLength="12.2" clip-path="url(#terminal-3827601330-line-14)">╺</text><text class="terminal-3827601330-r9" x="61" y="361.6" textLength="353.8" clip-path="url(#terminal-3827601330-line-14)">━━━━━━━━━━━━━━━━━━━━━━━━━━━━━</text><text class="terminal-3827601330-r2" x="451.4" y="361.6" textLength="24.4" clip-path="url(#terminal-3827601330-line-14)">7%</text><text class="terminal-3827601330-r2" x="488" y="361.6" textLength="97.6" clip-path="url(#terminal-3827601330-line-14)">--:--:--</text><text class="terminal-3827601330-r1" x="1268.8" y="361.6" textLength="12.2" clip-path="url(#terminal-3827601330-line-14)">
</text><text class="terminal-3827601330-r8" x="12.2" y="386" textLength="1244.4" clip-path="url(#terminal-3827601330-line-15)">▁▁▁▁▁▁▁▁▁▁▁▁▁▁▁▁▁▁▁▁▁▁▁▁▁▁▁▁▁▁▁▁▁▁▁▁▁▁▁▁▁▁▁▁▁▁▁▁▁▁▁▁▁▁▁▁▁▁▁▁▁▁▁▁▁▁▁▁▁▁▁▁▁▁▁▁▁▁▁▁▁▁▁▁▁▁▁▁▁▁▁▁▁▁▁▁▁▁▁▁▁▁</text><text class="terminal-3827601330-r1" x="1268.8" y="386" textLength="12.2" clip-path="url(#terminal-3827601330-line-15)">
</text><text class="terminal-3827601330-r1" x="1268.8" y="410.4" textLength="12.2" clip-path="url(#terminal-3827601330-line-16)">
</text><text class="terminal-3827601330-r1" x="1268.8" y="434.8" textLength="12.2" clip-path="url(#terminal-3827601330-line-17)">
</text><text class="terminal-3827601330-r1" x="1268.8" y="459.2" textLength="12.2" clip-path="url(#terminal-3827601330-line-18)">
</text><text class="terminal-3827601330-r1" x="1268.8" y="483.6" textLength="12.2" clip-path="url(#terminal-3827601330-line-19)">
</text><text class="terminal-3827601330-r1" x="1268.8" y="508" textLength="12.2" clip-path="url(#terminal-3827601330-line-20)">
</text><text class="terminal-3827601330-r1" x="1268.8" y="532.4" textLength="12.2" clip-path="url(#terminal-3827601330-line-21)">
</text><text class="terminal-3827601330-r1" x="1268.8" y="556.8" textLength="12.2" clip-path="url(#terminal-3827601330-line-22)">
</text><text class="terminal-3827601330-r1" x="1268.8" y="581.2" textLength="12.2" clip-path="url(#terminal-3827601330-line-23)">
</text><text class="terminal-3827601330-r1" x="1268.8" y="605.6" textLength="12.2" clip-path="url(#terminal-3827601330-line-24)">
</text><text class="terminal-3827601330-r1" x="1268.8" y="630" textLength="12.2" clip-path="url(#terminal-3827601330-line-25)">
</text><text class="terminal-3827601330-r1" x="1268.8" y="654.4" textLength="12.2" clip-path="url(#terminal-3827601330-line-26)">
</text><text class="terminal-3827601330-r1" x="1268.8" y="678.8" textLength="12.2" clip-path="url(#terminal-3827601330-line-27)">
</text><text class="terminal-3827601330-r10" x="0" y="703.2" textLength="366" clip-path="url(#terminal-3827601330-line-28)">&#160;selected:&#160;4&#160;&#160;&#160;&#160;shown:&#160;17&#160;/&#160;17</text><text class="terminal-3827601330-r1" x="1268.8" y="703.2" textLength="12.2" clip-path="url(#terminal-3827601330-line-28)">
</text><text class="terminal-3827601330-r11" x="0" y="727.6" textLength="36.6" clip-path="url(#terminal-3827601330-line-29)">&#160;/&#160;</text><text class="terminal-3827601330-r2" x="36.6" y="727.6" textLength="85.4" clip-path="url(#terminal-3827601330-line-29)">Search&#160;</text><text class="terminal-3827601330-r11" x="122" y="727.6" textLength="85.4" clip-path="url(#terminal-3827601330-line-29)">&#160;space&#160;</text><text class="terminal-3827601330-r2" x="207.4" y="727.6" textLength="85.4" clip-path="url(#terminal-3827601330-line-29)">Select&#160;</text><text class="terminal-3827601330-r11" x="292.8" y="727.6" textLength="36.6" clip-path="url(#terminal-3827601330-line-29)">&#160;a&#160;</text><text class="terminal-3827601330-r2" x="329.4" y="727.6" textLength="134.2" clip-path="url(#terminal-3827601330-line-29)">Select&#160;all&#160;</text><text class="terminal-3827601330-r11" x="463.6" y="727.6" textLength="36.6" clip-path="url(#terminal-3827601330-line-29)">&#160;c&#160;</text><text class="terminal-3827601330-r2" x="500.2" y="727.6" textLength="73.2" clip-path="url(#terminal-3827601330-line-29)">Clear&#160;</text><text class="terminal-3827601330-r11" x="573.4" y="727.6" textLength="36.6" clip-path="url(#terminal-3827601330-line-29)">&#160;d&#160;</text><text class="terminal-3827601330-r2" x="610" y="727.6" textLength="109.8" clip-path="url(#terminal-3827601330-line-29)">Download&#160;</text><text class="terminal-3827601330-r11" x="719.8" y="727.6" textLength="36.6" clip-path="url(#terminal-3827601330-line-29)">&#160;g&#160;</text><text class="terminal-3827601330-r2" x="756.4" y="727.6" textLength="97.6" clip-path="url(#terminal-3827601330-line-29)">→&#160;aria2&#160;</text><text class="terminal-3827601330-r11" x="854" y="727.6" textLength="36.6" clip-path="url(#terminal-3827601330-line-29)">&#160;r&#160;</text><text class="terminal-3827601330-r2" x="890.6" y="727.6" textLength="97.6" clip-path="url(#terminal-3827601330-line-29)">Refresh&#160;</text><text class="terminal-3827601330-r11" x="988.2" y="727.6" textLength="36.6" clip-path="url(#terminal-3827601330-line-29)">&#160;q&#160;</text><text class="terminal-3827601330-r2" x="1024.8" y="727.6" textLength="61" clip-path="url(#terminal-3827601330-line-29)">Quit&#160;</text><text class="terminal-3827601330-r12" x="1122.4" y="727.6" textLength="12.2" clip-path="url(#terminal-3827601330-line-29)">▏</text><text class="terminal-3827601330-r11" x="1134.6" y="727.6" textLength="24.4" clip-path="url(#terminal-3827601330-line-29)">^p</text><text class="terminal-3827601330-r2" x="1159" y="727.6" textLength="97.6" clip-path="url(#terminal-3827601330-line-29)">&#160;palette</text>
    </g>
    </g>
</svg>
